<svg id="add-user" xmlns="http://www.w3.org/2000/svg" width="47.917" height="43.255" viewBox="0 0 47.917 43.255">
  <path id="Path_4892" data-name="Path 4892" d="M11,326.543v7.523h2.864v-7.523a5.615,5.615,0,0,1,3.118-5.029,4.9,4.9,0,0,1-.509-.583A5.615,5.615,0,0,0,11,326.543Z" transform="translate(-10.427 -293.105)" fill="#d4e1f4"/>
  <path id="Path_4893" data-name="Path 4893" d="M62.191,170.849a4.99,4.99,0,0,0-6.421,4.781v2.494a4.99,4.99,0,0,0,6.421,4.78,4.99,4.99,0,0,1-3.557-4.78V175.63a4.992,4.992,0,0,1,3.557-4.78Z" transform="translate(-50.924 -157.16)" fill="#d4e1f4"/>
  <g id="Group_1464" data-name="Group 1464" transform="translate(0 9.265)">
    <path id="Path_4894" data-name="Path 4894" d="M217.232,132.756v2.85a6.273,6.273,0,1,0,12.546,0v-2.85a6.273,6.273,0,1,0-12.546,0Zm6.273-5.127a5.133,5.133,0,0,1,5.127,5.127v2.85a5.127,5.127,0,1,1-10.255,0v-2.85A5.133,5.133,0,0,1,223.5,127.628Z" transform="translate(-196.974 -126.483)" fill="#2a669a"/>
    <path id="Path_4895" data-name="Path 4895" d="M55.331,164.645a5.568,5.568,0,0,0-5.562,5.562V172.7a5.562,5.562,0,0,0,11.124,0v-2.495a5.568,5.568,0,0,0-5.562-5.562Zm4.417,8.057a4.417,4.417,0,1,1-8.833,0v-2.495a4.417,4.417,0,0,1,8.833,0Z" transform="translate(-45.496 -161.002)" fill="#2a669a"/>
    <path id="Path_4896" data-name="Path 4896" d="M417.661,368.557h-3.538v-3.538a.573.573,0,1,0-1.145,0v3.538H409.44a.573.573,0,1,0,0,1.145h3.538v3.538a.573.573,0,0,0,1.145,0V369.7h3.538a.573.573,0,1,0,0-1.145Z" transform="translate(-370.317 -341.732)" fill="#2a669a"/>
    <path id="Path_4897" data-name="Path 4897" d="M199.873,352.038a.573.573,0,0,0-.573.573v.6a.573.573,0,0,0,1.145,0v-.6A.573.573,0,0,0,199.873,352.038Z" transform="translate(-180.754 -330.508)" fill="#2a669a"/>
    <path id="Path_4898" data-name="Path 4898" d="M199.873,381.333a.573.573,0,0,0-.573.573v5.632a.573.573,0,1,0,1.145,0v-5.632A.573.573,0,0,0,199.873,381.333Z" transform="translate(-180.754 -357.007)" fill="#2a669a"/>
    <path id="Path_4899" data-name="Path 4899" d="M36.124,298.186c-.3-.016-.45.164-.654.413a4.925,4.925,0,0,1-3.83,1.815l-.129,0a4.911,4.911,0,0,1-3.85-2,.571.571,0,0,0-.475-.232,6.949,6.949,0,0,0-4.858,2.141c-.15.156-.292.319-.425.487a6.159,6.159,0,0,0-3.039-1.02c-.3-.016-.45.161-.636.387a4.261,4.261,0,0,1-6.723-.165.572.572,0,0,0-.475-.232A6.188,6.188,0,0,0,5,305.959v7.523a.573.573,0,0,0,.573.573h14.8V315.2a.573.573,0,0,0,.573.573H42.113a.573.573,0,0,0,.573-.573V305.16A7,7,0,0,0,36.124,298.186Zm5.416,16.445H21.521v-4.223a.573.573,0,1,0-1.145,0v2.5H6.145v-6.95a5.043,5.043,0,0,1,4.632-5.025,5.407,5.407,0,0,0,8.291.017,5.012,5.012,0,0,1,2.2.807,7.231,7.231,0,0,0-.892,3.492v1.339a.573.573,0,1,0,1.145,0v-1.344a5.953,5.953,0,0,1,1.594-4.1,5.808,5.808,0,0,1,3.815-1.816,6.1,6.1,0,0,0,9.4.018,5.848,5.848,0,0,1,5.207,5.807Z" transform="translate(-5 -281.787)" fill="#2a669a"/>
  </g>
  <path id="Path_4901" data-name="Path 4901" d="M346.1,29.421a7.732,7.732,0,1,0,7.732,7.732A7.732,7.732,0,0,0,346.1,29.421Zm0,14.318a6.568,6.568,0,1,1,4.662-1.924A6.586,6.586,0,0,1,346.1,43.739Z" transform="translate(-306.545 -29.421)" fill="#09bc8a"/>
</svg>
