<svg xmlns="http://www.w3.org/2000/svg" width="37.384" height="42.976" viewBox="0 0 37.384 42.976">
  <g id="bell_1_" data-name="bell (1)" transform="translate(-37.661 -4.999)">
    <path id="Path_4877" data-name="Path 4877" d="M60.044,57.716A12.978,12.978,0,0,0,48.566,70.6V84.578h-.912a2.994,2.994,0,0,0-2.995,2.994v2.995h2.568V87.572a2.994,2.994,0,0,1,2.995-2.994h.912V70.6A12.977,12.977,0,0,1,62.611,57.716c.072-.009.144-.015.215-.022-.422-.042-.85-.064-1.284-.064a13.107,13.107,0,0,0-1.5.086Z" transform="translate(-6.4 -48.125)" fill="#d4e1f4"/>
    <g id="Group_1462" data-name="Group 1462" transform="translate(37.661 4.999)">
      <path id="Path_4878" data-name="Path 4878" d="M120.327,194.552a.514.514,0,0,0-1.027,0v.539a.514.514,0,0,0,1.027,0Z" transform="translate(-112.311 -177.854)" fill="#2a669a"/>
      <path id="Path_4879" data-name="Path 4879" d="M119.814,223.333a.514.514,0,0,0-.514.514v7.962a.514.514,0,0,0,1.027,0v-7.962A.514.514,0,0,0,119.814,223.333Z" transform="translate(-112.311 -204.642)" fill="#2a669a"/>
      <path id="Path_4880" data-name="Path 4880" d="M68.63,35.977V25.432H67.6V35.939H47.992a.514.514,0,0,0,0,1.027H68.116a2.481,2.481,0,0,1,2.48,2.48v2.481H38.688v-2.48a2.481,2.481,0,0,1,2.481-2.481h3.4a.514.514,0,0,0,0-1.027H42.681V22.48a12.461,12.461,0,0,1,20.605-9.432l.67-.779a13.478,13.478,0,0,0-6.8-3.127V7.01a2.011,2.011,0,1,0-4.022,0V9.141A13.509,13.509,0,0,0,41.653,22.48V35.939h-.484a3.508,3.508,0,0,0-3.508,3.508v2.994a.514.514,0,0,0,.514.514H50.137v.515a4.506,4.506,0,0,0,9.012,0v-.515H71.111a.514.514,0,0,0,.514-.514V39.447a3.508,3.508,0,0,0-2.994-3.47ZM54.158,7.01a.983.983,0,1,1,1.967,0V9.028q-.49-.036-.983-.036t-.983.036Zm3.963,36.459a3.479,3.479,0,0,1-6.957,0v-.515h6.957Z" transform="translate(-37.661 -4.999)" fill="#2a669a"/>
    </g>
    <path id="Path_4882" data-name="Path 4882" d="M306.153,74.579a7.515,7.515,0,0,0-6.339,10.9.514.514,0,1,0,.914-.472,6.483,6.483,0,1,1,2.355,2.566q-.132-.082-.258-.17a.514.514,0,0,0-.579.849q.144.1.293.192a7.506,7.506,0,1,0,3.615-13.868Z" transform="translate(-238.967 -63.616)" fill="#09bc8a"/>
  </g>
</svg>
