<svg id="cafe" xmlns="http://www.w3.org/2000/svg" width="22.39" height="32.871" viewBox="0 0 22.39 32.871">
  <path id="Path_4912" data-name="Path 4912" d="M96.583,41.216a10.348,10.348,0,0,1,7.623-15.343,10.716,10.716,0,0,0-1.389-.09A10.345,10.345,0,0,0,93.81,41.216L102.5,56.6l1.436-2.367Z" transform="translate(-91.624 -24.951)" fill="#d4e1f4"/>
  <g id="Group_1469" data-name="Group 1469" transform="translate(0 0)">
    <path id="Path_4914" data-name="Path 4914" d="M91.632,13.785A11.177,11.177,0,0,0,81.9,30.459l9.15,16.2h.492l9.645-15.9a11.177,11.177,0,0,0-9.556-16.974Zm8.845,16.542-9.163,15.1L82.625,30.05a10.345,10.345,0,1,1,17.852.277Z" transform="translate(-80.439 -13.785)" fill="#2a669a"/>
    <path id="Path_4915" data-name="Path 4915" d="M136.79,66.979a7.83,7.83,0,1,0,7.83,7.83A7.83,7.83,0,0,0,136.79,66.979Zm0,14.829a7,7,0,1,1,7-7A7,7,0,0,1,136.79,81.808Z" transform="translate(-125.596 -63.292)" fill="#2a669a"/>
  </g>
</svg>
