<svg xmlns="http://www.w3.org/2000/svg" width="25.599" height="25.598" viewBox="0 0 25.599 25.598">
  <path id="communications" d="M22.731,4.738q-.069-.087-.144-.174A12.757,12.757,0,0,0,12.984,0c-.062,0-.122,0-.184,0s-.122,0-.184,0A12.757,12.757,0,0,0,2.986,4.6a1.233,1.233,0,0,0-.094.114.028.028,0,0,1-.006.008,12.759,12.759,0,0,0,0,16.163.028.028,0,0,1,.006.008A1.235,1.235,0,0,0,2.986,21l0,0a12.755,12.755,0,0,0,9.627,4.59c.123,0,.245,0,.368,0a12.757,12.757,0,0,0,9.6-4.56q.075-.087.144-.174a12.765,12.765,0,0,0,0-16.123ZM19.9,12.449a21.24,21.24,0,0,0-.814-5.606,13.913,13.913,0,0,0,3.238-1.5,12.031,12.031,0,0,1,2.572,7.108ZM13.15.718c2.138.22,4,2.428,5.072,5.66a20.121,20.121,0,0,1-5.072.716Zm-.7,6.376a20.121,20.121,0,0,1-5.072-.716C8.452,3.146,10.312.938,12.45.718Zm0,.7v4.656H6.4a20.879,20.879,0,0,1,.77-5.4,20.831,20.831,0,0,0,5.278.748Zm0,5.356v4.656a20.831,20.831,0,0,0-5.278.748,20.879,20.879,0,0,1-.77-5.4Zm0,5.356v6.376c-2.138-.22-4-2.428-5.072-5.66a20.121,20.121,0,0,1,5.072-.716Zm.7,0a20.121,20.121,0,0,1,5.072.716c-1.074,3.232-2.934,5.44-5.072,5.66Zm0-.7V13.149H19.2a20.894,20.894,0,0,1-.77,5.406,20.666,20.666,0,0,0-5.278-.75Zm0-5.356V7.794a20.665,20.665,0,0,0,5.278-.75,20.894,20.894,0,0,1,.77,5.406ZM21.869,4.8a13.233,13.233,0,0,1-3,1.382,10.81,10.81,0,0,0-3.3-5.158A12.119,12.119,0,0,1,21.869,4.8ZM10.022,1.022a10.81,10.81,0,0,0-3.3,5.158,13.406,13.406,0,0,1-3-1.38,12.1,12.1,0,0,1,6.292-3.778ZM3.278,5.34A13.92,13.92,0,0,0,6.516,6.846a21.213,21.213,0,0,0-.814,5.6h-5A12.037,12.037,0,0,1,3.278,5.34ZM5.7,13.149a21.213,21.213,0,0,0,.814,5.6v0a13.836,13.836,0,0,0-3.238,1.5,12.037,12.037,0,0,1-2.572-7.11ZM3.73,20.8a13.406,13.406,0,0,1,3-1.38,10.81,10.81,0,0,0,3.3,5.158A12.1,12.1,0,0,1,3.73,20.8Zm11.847,3.778a10.81,10.81,0,0,0,3.3-5.158,13.233,13.233,0,0,1,3,1.382,12.119,12.119,0,0,1-6.292,3.776Zm6.744-4.32a13.914,13.914,0,0,0-3.238-1.5,21.24,21.24,0,0,0,.814-5.606h5a12.031,12.031,0,0,1-2.572,7.108Z" transform="translate(-0.001)" fill="#2a669a"/>
</svg>
