<svg id="contract" xmlns="http://www.w3.org/2000/svg" width="27.208" height="41.433" viewBox="0 0 27.208 41.433">
  <path id="Path_4596" data-name="Path 4596" d="M138.48,43.6h8.549a.5.5,0,0,0,0-.99H138.48a.5.5,0,1,0,0,.99Z" transform="translate(-134.12 -39.502)" fill="#707070"/>
  <path id="Path_4597" data-name="Path 4597" d="M133.812,81.706h8.934a.5.5,0,1,0,0-.99h-8.934a.5.5,0,0,0,0,.99Z" transform="translate(-129.838 -74.467)" fill="#707070"/>
  <path id="Path_4598" data-name="Path 4598" d="M133.812,119.817h19.946a.5.5,0,1,0,0-.99H133.812a.5.5,0,0,0,0,.99Z" transform="translate(-129.838 -109.432)" fill="#707070"/>
  <path id="Path_4599" data-name="Path 4599" d="M153.758,157.927a.5.5,0,1,0,0-.99H133.812a.5.5,0,1,0,0,.99Z" transform="translate(-129.838 -144.397)" fill="#707070"/>
  <path id="Path_4600" data-name="Path 4600" d="M114.522,37.54a1.083,1.083,0,0,0,.879.45,1.1,1.1,0,0,0,.433-.09l1.88-.807a1.08,1.08,0,0,0,.553-1.454l-.654-1.382L117.47,6.9A1.91,1.91,0,0,0,115.55,5H94.592a1.91,1.91,0,0,0-1.92,1.9V33.065L91.289,35.69a1.074,1.074,0,0,0,.431,1.446l1.785,1a1.084,1.084,0,0,0,.53.139,1.1,1.1,0,0,0,.311-.045A1.078,1.078,0,0,0,95,37.694l.193-.365.644.532-1.13,1.555A1.72,1.72,0,0,0,96.1,42.149a1.746,1.746,0,0,0,.3-.026.1.1,0,0,1,0,.01,1.719,1.719,0,0,0,1.7,1.444,1.754,1.754,0,0,0,.3-.026s0,.007,0,.01A1.72,1.72,0,0,0,100.1,45a1.743,1.743,0,0,0,.3-.026s0,.006,0,.01a1.728,1.728,0,0,0,3.1.733l.358-.493.67.531a1.859,1.859,0,0,0,2.594-.2,1.816,1.816,0,0,0,.435-.964,1.854,1.854,0,0,0,1.926-.555,1.816,1.816,0,0,0,.435-.964,1.853,1.853,0,0,0,1.926-.555,1.816,1.816,0,0,0,.424-.9,1.862,1.862,0,0,0,2.074-.511l.022-.026a1.788,1.788,0,0,0-.187-2.536l-.408-.349a3.928,3.928,0,0,0,.753-.665Zm2.853-1.409a.092.092,0,0,1-.051.052l-1.88.807a.1.1,0,0,1-.128-.046l-.237-.5a.5.5,0,0,0-.089-.186l-4.282-9a.085.085,0,0,1,0-.069.092.092,0,0,1,.054-.053l1.932-.755a.1.1,0,0,1,.125.047l4.556,9.632A.085.085,0,0,1,117.375,36.131ZM93.663,6.9a.919.919,0,0,1,.929-.906H115.55a.919.919,0,0,1,.929.908l.132,25.241-2.9-6.132a1.092,1.092,0,0,0-1.381-.546l-1.932.754a1.08,1.08,0,0,0-.585,1.47l.2.424-.061.026a3.808,3.808,0,0,1-2.015-.083l-1.93-.538a3.068,3.068,0,0,0-1.745.028l-1.863.584a3.054,3.054,0,0,0-1.02.549,3.975,3.975,0,0,0-1.526-.145l.135-.255a1.08,1.08,0,0,0-.4-1.43l-1.775-1.07a1.09,1.09,0,0,0-1.526.423l-2.628,4.986Zm.46,30.335a.094.094,0,0,1-.058.046.1.1,0,0,1-.078-.008l-1.785-1a.089.089,0,0,1-.037-.12l5-9.491a.094.094,0,0,1,.059-.047.107.107,0,0,1,.028,0,.1.1,0,0,1,.051.015l1.774,1.07a.088.088,0,0,1,.035.118Zm1.549,3.792A.731.731,0,0,1,95.506,40l1.855-2.552a.739.739,0,0,1,1.025-.166.73.73,0,0,1,.166,1.023l-.5.692L96.7,40.846l-.008.011A.739.739,0,0,1,95.673,41.023Zm2,1.428a.729.729,0,0,1-.166-1.022l1.345-1.85a.739.739,0,0,1,1.023-.166.731.731,0,0,1,.166,1.024l-.424.583-.912,1.253-.008.011a.74.74,0,0,1-1.026.167Zm2,1.429a.731.731,0,0,1-.166-1.024l.925-1.273a.739.739,0,0,1,1.025-.166.73.73,0,0,1,.166,1.023l-.614.845-.3.418h0l-.008.011a.739.739,0,0,1-1.024.166ZM102.7,45.14a.74.74,0,0,1-1.026.167.73.73,0,0,1-.166-1.022l.508-.7a.739.739,0,0,1,1.025-.166.73.73,0,0,1,.166,1.023Zm10.92-4.7-.022.026a.869.869,0,0,1-1.216.092l-.722-.619,0,0L109.739,38.3a.5.5,0,1,0-.644.752l.01.008.017.014,1.891,1.619a.836.836,0,0,1,.085,1.185.865.865,0,0,1-1.211.087l-1.914-1.639a.5.5,0,0,0-.817.367h0a.494.494,0,0,0,.173.384l1.321,1.13a.836.836,0,0,1,.088,1.188.865.865,0,0,1-1.211.087l-.593-.508h0l-.726-.621a.5.5,0,1,0-.644.752l.631.54.095.081a.836.836,0,0,1,.088,1.188.865.865,0,0,1-1.211.087l-.015-.012-.844-.668a1.714,1.714,0,0,0-1.578-2.022,1.715,1.715,0,0,0-1.582-2,1.716,1.716,0,0,0-1.516-2,1.725,1.725,0,0,0-3.069-1.432l-.141.194-.754-.623,3.6-6.8a3.641,3.641,0,0,1,1.393-.109,3.061,3.061,0,0,0-.156.314l-.569,1.375c-.146.352-.281.715-.4,1.077l-.568,1.719a.5.5,0,0,0,.27.608l.122.054a2.966,2.966,0,0,0,2.844-.217,2.873,2.873,0,0,0,1.289-2.124q0-.043.008-.086c.027-.128.2-.845.677-.9l.8.222a1.825,1.825,0,0,1,.784.452L110.839,37l.025.023,2.669,2.284a.8.8,0,0,1,.084,1.133Zm-2.1-4.159-5.07-4.968a2.817,2.817,0,0,0-1.21-.7l-.873-.244a.475.475,0,0,0-.135-.018,1.609,1.609,0,0,0-1.419.927,2.882,2.882,0,0,0-.291.819.488.488,0,0,0-.006.049q0,.046-.008.091a1.887,1.887,0,0,1-.849,1.393,1.988,1.988,0,0,1-1.6.243l.419-1.269c.112-.339.238-.679.375-1.009l.567-1.37a2.052,2.052,0,0,1,1.278-1.153l1.863-.584a2.08,2.08,0,0,1,1.183-.019l1.93.538a4.751,4.751,0,0,0,2.532.088.492.492,0,0,0,.09-.028l.146-.062,3.59,7.544a2.936,2.936,0,0,1-1.052.979Z" transform="translate(-91.162 -5)" fill="#707070"/>
  <path id="Path_4601" data-name="Path 4601" d="M138.094,194.386a2.183,2.183,0,0,0,.93.2,2.489,2.489,0,0,0,1.309-.364,2.659,2.659,0,0,0,.717-.709c.033-.043.072-.1.106-.138a2.249,2.249,0,0,0,.441.306,2.936,2.936,0,0,0,1.325.338,3.019,3.019,0,0,0,1.582-.416.5.5,0,1,0-.5-.856,2.024,2.024,0,0,1-1.062.282,1.942,1.942,0,0,1-.878-.22,1.328,1.328,0,0,1-.291-.209.873.873,0,0,0-.59-.268,1.126,1.126,0,0,0-.927.587,1.751,1.751,0,0,1-.453.466,1.474,1.474,0,0,1-1.286.111.96.96,0,0,1-.311-.245,2.318,2.318,0,0,0,1.065-.453,2.5,2.5,0,0,0,.705-.89,1.257,1.257,0,0,0-.007-1.234,1.33,1.33,0,0,0-.929-.546,2.066,2.066,0,0,0-1.556.357,1.992,1.992,0,0,0-.663,1.612l-.009,0a.5.5,0,0,0-.39.91,3.6,3.6,0,0,0,.618.2A2.2,2.2,0,0,0,138.094,194.386Zm.005-3.13a1.013,1.013,0,0,1,.6-.171,1.133,1.133,0,0,1,.184.015.432.432,0,0,1,.259.106c.052.081-.108.518-.477.807a1.423,1.423,0,0,1-.837.28A1.211,1.211,0,0,1,138.1,191.256Z" transform="translate(-132.411 -174.818)" fill="#707070"/>
  <path id="Path_4602" data-name="Path 4602" d="M292.851,215.417h-7.433a.5.5,0,1,0,0,.99h7.433a.5.5,0,1,0,0-.99Z" transform="translate(-268.931 -198.05)" fill="#707070"/>
</svg>
