<svg id="email" xmlns="http://www.w3.org/2000/svg" width="54.129" height="42.792" viewBox="0 0 54.129 42.792">
  <path id="Path_4902" data-name="Path 4902" d="M15.4,177.8h3.235a4.4,4.4,0,0,1-4.4-4.4v-23.9a4.4,4.4,0,0,1,4.4-4.4H15.4a4.4,4.4,0,0,0-4.4,4.4v23.9A4.4,4.4,0,0,0,15.4,177.8Z" transform="translate(-10.353 -135.653)" fill="#d4e1f4"/>
  <g id="Group_1465" data-name="Group 1465" transform="translate(0 8.79)">
    <path id="Path_4903" data-name="Path 4903" d="M10.05,173.1H45.273a5.056,5.056,0,0,0,5.05-5.05V148.563H49.029v19.483a3.732,3.732,0,0,1-.53,1.92L35.615,156.9l10.6-9.068-.841-.983L30.1,159.921a3.744,3.744,0,0,1-4.857,0l-8.8-7.451a.647.647,0,1,0-.836.987l4.053,3.432L6.821,169.961a3.732,3.732,0,0,1-.527-1.916v-22.47l6.008,5.087a.647.647,0,1,0,.836-.987L6.3,143.889a3.76,3.76,0,0,1,3.746-3.5H40.87v-1.294H10.05A5.056,5.056,0,0,0,5,144.144v23.9a5.056,5.056,0,0,0,5.05,5.05ZM24.4,160.911a5.035,5.035,0,0,0,6.532,0l3.694-3.161,13.023,13.2a3.738,3.738,0,0,1-2.379.852H10.05a3.739,3.739,0,0,1-2.383-.855L20.647,157.73Z" transform="translate(-5 -139.094)" fill="#2a669a"/>
    <path id="Path_4904" data-name="Path 4904" d="M36.594,252.685a.647.647,0,1,0-1.294,0v.679a.647.647,0,1,0,1.294,0Z" transform="translate(-32.033 -239.86)" fill="#2a669a"/>
    <path id="Path_4905" data-name="Path 4905" d="M35.947,281.333a.647.647,0,0,0-.647.647v6.793a.647.647,0,0,0,1.294,0V281.98A.647.647,0,0,0,35.947,281.333Z" transform="translate(-32.033 -265.996)" fill="#2a669a"/>
  </g>
  <path id="Path_4906" data-name="Path 4906" d="M341.119,57.573a9.453,9.453,0,1,0,9.453,9.453A9.453,9.453,0,0,0,341.119,57.573Zm0,17.612a8.138,8.138,0,1,1,5.775-2.383A8.159,8.159,0,0,1,341.119,75.185Z" transform="translate(-296.443 -57.573)" fill="#09bc8a"/>
</svg>
