<svg xmlns="http://www.w3.org/2000/svg" width="37.955" height="34.773" viewBox="0 0 37.955 34.773">
  <g id="house" transform="translate(0 -21.461)">
    <g id="Group_1219" data-name="Group 1219" transform="translate(0 21.461)">
      <path id="Path_4549" data-name="Path 4549" d="M37.551,43.439a2.346,2.346,0,0,0-3.24-.627l-4.844,3.242-.014-10.09,1.683,1.576a1.916,1.916,0,0,0,1.314.52h0a1.93,1.93,0,0,0,1.4-.608,1.923,1.923,0,0,0-.089-2.718l-3.19-2.988a.542.542,0,1,0-.741.791l3.19,2.988a.839.839,0,0,1-.573,1.452h0a.836.836,0,0,1-.574-.227h0L19.209,24.882a.542.542,0,0,0-.742,0L5.833,36.786a.84.84,0,0,1-1.151-1.222L18.26,22.772a.841.841,0,0,1,1.15,0l7.944,7.442a.542.542,0,0,0,.741-.791l-7.944-7.442a1.926,1.926,0,0,0-2.633,0L13.17,26.078v-.73a.862.862,0,0,0-.862-.861h0l-3.11,0a.862.862,0,0,0-.861.863l.009,5.27L3.938,34.775A1.923,1.923,0,0,0,5.2,38.1h.059a1.909,1.909,0,0,0,1.317-.523l1.679-1.582.007,4.766a11.417,11.417,0,0,0-1.645-.121H5.689v-.325a1.98,1.98,0,0,0-1.978-1.978H1.978A1.98,1.98,0,0,0,0,40.313V48.8a.542.542,0,1,0,1.083,0V40.313a.9.9,0,0,1,.894-.894H3.711a.9.9,0,0,1,.894.894V53.142a.9.9,0,0,1-.894.894H1.978a.9.9,0,0,1-.894-.894v-.948a.542.542,0,0,0-1.083,0v.948A1.98,1.98,0,0,0,1.978,55.12H3.711a1.98,1.98,0,0,0,1.978-1.978v-.074l7.934,3,.045.015a3.784,3.784,0,0,0,1.03.146,3.506,3.506,0,0,0,.548-.043L26.905,54.51h.008a5.708,5.708,0,0,0,2.7-1.212l.02-.017,7.532-6.775A2.346,2.346,0,0,0,37.551,43.439ZM12.086,25.571l0,1.526L9.426,29.605,9.42,25.574Zm6.754.45,9.529,8.926.017,11.831L26.851,47.8l-1.624-.091-.043-.431a3.431,3.431,0,0,0-2.756-3.034l-.01-7.038a.982.982,0,0,0-.981-.979h0l-5.163.007a.981.981,0,0,0-.979.982l.009,6.137A10.3,10.3,0,0,1,12.389,42.2q-.171-.1-.345-.194l-.137-.071c-.071-.037-.141-.074-.212-.109l-.171-.082-.183-.086-.188-.082-.172-.073-.194-.078-.173-.067-.194-.07-.183-.063-.187-.061-.2-.061-.173-.05c-.075-.021-.151-.041-.227-.06l-.107-.028-.008-6Zm2.5,18.092-4.531-.522-.427-.049-.009-6.22,4.957-.007Zm15.1,1.585-7.525,6.768a4.623,4.623,0,0,1-2.177.973l-11.654,1.68h-.015a2.583,2.583,0,0,1-1.093-.07L5.689,51.91V41.721h.927a10.345,10.345,0,0,1,2.336.268l.085.02c.094.023.187.046.28.071l.024.007q.14.038.279.081l.05.015q.148.046.294.1l.03.011q.305.105.6.23l.032.014q.149.062.3.13l.008,0q.142.065.282.135l.033.016q.137.068.272.141l.051.028c.091.049.181.1.27.152a11.38,11.38,0,0,0,4.171,1.452l.014,0,6.07.7.1.017a2.35,2.35,0,0,1,1.835,1.688,2.38,2.38,0,0,1,.073.394l.024.242-11.376-1a.542.542,0,1,0-.095,1.079l12.027,1.054H24.7l2.268.127H27l.032,0,.036,0,.048-.009.034-.008a.528.528,0,0,0,.051-.018l.027-.011a.536.536,0,0,0,.073-.041l1.925-1.288h0l5.686-3.805A1.257,1.257,0,0,1,36.448,45.7Z" transform="translate(0 -21.461)" fill="#2a669a"/>
    </g>
  </g>
</svg>
