<svg id="job" xmlns="http://www.w3.org/2000/svg" width="25.285" height="25.286" viewBox="0 0 25.285 25.286">
  <path id="Path_4926" data-name="Path 4926" d="M21.873,127.891c-2.359-1.331-3.684-1.672-5.3-.173a.477.477,0,0,0-.09.113.327.327,0,0,1-.212.1c-.746.14-2.428-.459-3.953-1.7-.417-.34-.83-.714-1.226-1.108s-.777-.818-1.109-1.227c-1.242-1.525-1.84-3.208-1.7-3.954a.328.328,0,0,1,.1-.212.478.478,0,0,0,.112-.089c1.5-1.611,1.16-2.936-.171-5.3-.8-1.511-1.678-3.013-2.838-3.354a3.721,3.721,0,0,0-2.472.649A7.072,7.072,0,0,0,.628,114.6a9.954,9.954,0,0,0-.143,6.549,21.591,21.591,0,0,0,4.33,7.292.476.476,0,0,0,.719-.624,20.629,20.629,0,0,1-4.141-6.954,9.108,9.108,0,0,1,.11-5.888,6.07,6.07,0,0,1,2.038-2.545,2.927,2.927,0,0,1,1.677-.53c.873.257,1.781,1.971,2.268,2.892l.006.011c1.359,2.409,1.3,3.1.347,4.142a1.213,1.213,0,0,0-.49.819c-.214,1.149.567,3.094,1.9,4.729.352.433.747.869,1.175,1.3s.856.813,1.3,1.173c1.637,1.333,3.581,2.114,4.729,1.9a1.213,1.213,0,0,0,.819-.491c1.041-.952,1.735-1.011,4.142.349l.012.007c.92.486,2.634,1.39,2.894,2.267a2.9,2.9,0,0,1-.531,1.676,6.061,6.061,0,0,1-2.546,2.041,9.084,9.084,0,0,1-5.886.108,20.985,20.985,0,0,1-7.023-4.2c-.487-.427-.961-.873-1.408-1.327a.476.476,0,1,0-.678.668c.463.47.954.933,1.459,1.376a21.645,21.645,0,0,0,7.363,4.389,10.983,10.983,0,0,0,3.23.488,8.431,8.431,0,0,0,3.318-.629,7.062,7.062,0,0,0,2.962-2.387,3.693,3.693,0,0,0,.652-2.473C24.885,129.564,23.317,128.654,21.873,127.891Z" transform="translate(0 -110.931)" fill="#2a669a"/>
</svg>
