<svg id="medal" xmlns="http://www.w3.org/2000/svg" width="32.041" height="42.258" viewBox="0 0 32.041 42.258">
  <g id="Group_1150" data-name="Group 1150" transform="translate(3.96 3.968)">
    <g id="Group_1149" data-name="Group 1149">
      <path id="Path_4603" data-name="Path 4603" d="M127.333,49.379A12.034,12.034,0,0,0,112.4,67.5a.666.666,0,0,0,1.051-.818,10.7,10.7,0,0,1,13.278-16.114.666.666,0,1,0,.6-1.189Z" transform="translate(-109.878 -48.082)" fill="#707070"/>
    </g>
  </g>
  <g id="Group_1152" data-name="Group 1152" transform="translate(8.354 10.218)">
    <g id="Group_1151" data-name="Group 1151">
      <path id="Path_4604" data-name="Path 4604" d="M181.488,124.172a.666.666,0,0,0-1.189.6,10.7,10.7,0,0,1-16.115,13.276.666.666,0,1,0-.818,1.051,12.034,12.034,0,0,0,18.122-14.928Z" transform="translate(-163.109 -123.806)" fill="#707070"/>
    </g>
  </g>
  <g id="Group_1154" data-name="Group 1154" transform="translate(22.842 6.818)">
    <g id="Group_1153" data-name="Group 1153">
      <path id="Path_4605" data-name="Path 4605" d="M340.817,83.835c-.165-.187-.338-.371-.515-.548s-.361-.35-.548-.515a.666.666,0,0,0-.882,1c.166.147.331.3.488.459s.312.322.459.488a.666.666,0,0,0,1-.882Z" transform="translate(-338.647 -82.605)" fill="#707070"/>
    </g>
  </g>
  <g id="Group_1156" data-name="Group 1156" transform="translate(0 0)">
    <g id="Group_1155" data-name="Group 1155">
      <path id="Path_4606" data-name="Path 4606" d="M93.606,17.2a2.26,2.26,0,0,0,0-2.362L92.73,13.4a.937.937,0,0,1-.126-.633l.261-1.659a2.259,2.259,0,0,0-.906-2.187L90.6,7.936a.938.938,0,0,1-.359-.537l-.4-1.634a2.259,2.259,0,0,0-1.671-1.671l-1.634-.4A.937.937,0,0,1,86,3.338L85.016,1.98a2.259,2.259,0,0,0-2.187-.906l-1.66.261a.938.938,0,0,1-.633-.126L79.1.333a2.26,2.26,0,0,0-2.362,0L75.3,1.209a.938.938,0,0,1-.633.126l-1.659-.261a2.259,2.259,0,0,0-2.187.906l-.988,1.358A.938.938,0,0,1,69.3,3.7l-1.634.4a2.26,2.26,0,0,0-1.671,1.671L65.6,7.4a.937.937,0,0,1-.359.537l-1.358.988a2.259,2.259,0,0,0-.906,2.187l.261,1.66a.937.937,0,0,1-.126.633l-.876,1.437a2.26,2.26,0,0,0,0,2.362l.876,1.437a.937.937,0,0,1,.126.633l-.261,1.659a2.259,2.259,0,0,0,.906,2.187l1.358.988a.937.937,0,0,1,.359.537l.4,1.634a2.259,2.259,0,0,0,1.671,1.671l.682.165-4.618,10.3a.666.666,0,0,0,.687.934l3.716-.444,2.141,3.07a.666.666,0,0,0,.546.285l.062,0a.666.666,0,0,0,.545-.391L76.14,31.343l.6.364a2.26,2.26,0,0,0,2.362,0l.619-.378,4.723,10.535a.666.666,0,0,0,.545.391l.062,0a.666.666,0,0,0,.546-.285l2.141-3.07,3.716.444a.666.666,0,0,0,.687-.934L87.518,28.107l.657-.159a2.259,2.259,0,0,0,1.671-1.671l.4-1.634a.937.937,0,0,1,.359-.537l1.358-.988a2.259,2.259,0,0,0,.906-2.187l-.261-1.66a.937.937,0,0,1,.126-.633ZM70.689,40.246l-1.7-2.433a.666.666,0,0,0-.625-.28l-2.945.352L69.63,28.5a.931.931,0,0,1,.2.2l.988,1.358a2.288,2.288,0,0,0,.314.35L68.92,35.35a.666.666,0,1,0,1.215.545l2.207-4.923a2.279,2.279,0,0,0,.665-.006l1.66-.261a.935.935,0,0,1,.3,0Zm19.753-2.361L87.5,37.533a.666.666,0,0,0-.625.28l-1.7,2.433L80.9,30.7a.937.937,0,0,1,.272,0l1.659.261a2.281,2.281,0,0,0,.692,0L85.729,35.9a.666.666,0,1,0,1.215-.545l-2.223-4.959a2.293,2.293,0,0,0,.295-.331L86,28.7a.935.935,0,0,1,.224-.218Zm2.027-21.378-.876,1.437a2.271,2.271,0,0,0-.3,1.533l.261,1.66a.933.933,0,0,1-.374.9l-1.358.988a2.271,2.271,0,0,0-.87,1.3l-.4,1.634a.933.933,0,0,1-.69.69l-1.634.4a2.271,2.271,0,0,0-1.3.87l-.988,1.358a.932.932,0,0,1-.9.374l-1.659-.261a2.271,2.271,0,0,0-1.534.3l-1.437.876a.933.933,0,0,1-.975,0l-1.437-.876a2.27,2.27,0,0,0-1.533-.3l-1.66.261a.932.932,0,0,1-.9-.374l-.988-1.358a2.271,2.271,0,0,0-1.3-.87l-1.634-.4a.933.933,0,0,1-.69-.69l-.4-1.634a2.271,2.271,0,0,0-.87-1.3l-1.358-.988a.932.932,0,0,1-.374-.9l.261-1.659a2.271,2.271,0,0,0-.3-1.534l-.876-1.437a.933.933,0,0,1,0-.975l.876-1.437a2.271,2.271,0,0,0,.3-1.533l-.261-1.66a.933.933,0,0,1,.374-.9l1.358-.988a2.271,2.271,0,0,0,.87-1.3l.4-1.634a.933.933,0,0,1,.69-.69l1.634-.4a2.27,2.27,0,0,0,1.3-.87L71.9,2.763a.932.932,0,0,1,.9-.374l1.659.261a2.27,2.27,0,0,0,1.534-.3l1.437-.876a.933.933,0,0,1,.975,0l1.437.876a2.27,2.27,0,0,0,1.533.3l1.66-.261a.933.933,0,0,1,.9.374l.988,1.358a2.271,2.271,0,0,0,1.3.87l1.634.4a.933.933,0,0,1,.69.69l.4,1.634a2.27,2.27,0,0,0,.87,1.3L91.176,10a.932.932,0,0,1,.374.9l-.261,1.659a2.271,2.271,0,0,0,.3,1.533l.876,1.437A.933.933,0,0,1,92.469,16.508Z" transform="translate(-61.898 0)" fill="#707070"/>
    </g>
  </g>
  <g id="Group_1158" data-name="Group 1158" transform="translate(8.167 8.286)">
    <g id="Group_1157" data-name="Group 1157">
      <path id="Path_4607" data-name="Path 4607" d="M176.5,106.06a1.191,1.191,0,0,0-1-.823l-4.007-.475L169.8,101.1a1.2,1.2,0,0,0-2.186,0l-1.69,3.664-4.007.475a1.2,1.2,0,0,0-.675,2.078l2.963,2.74-.786,3.958a1.207,1.207,0,0,0,1.179,1.44,1.2,1.2,0,0,0,.589-.156l3.521-1.971,3.521,1.971a1.2,1.2,0,0,0,1.768-1.284l-.786-3.958,2.963-2.74A1.191,1.191,0,0,0,176.5,106.06Zm-4.468,3.27a.666.666,0,0,0-.2.619l.8,4.05-3.6-2.017a.666.666,0,0,0-.651,0l-3.6,2.017.8-4.05a.665.665,0,0,0-.2-.619l-3.032-2.8,4.1-.486a.666.666,0,0,0,.526-.382l1.73-3.75,1.73,3.75a.666.666,0,0,0,.526.382l4.1.486Z" transform="translate(-160.849 -100.398)" fill="#707070"/>
    </g>
  </g>
</svg>
