<svg xmlns="http://www.w3.org/2000/svg" width="45.335" height="37.591" viewBox="0 0 45.335 37.591">
  <g id="men_1_" data-name="men (1)" transform="translate(0 -43.729)">
    <g id="Group_1406" data-name="Group 1406" transform="translate(0 60.194)">
      <g id="Group_1405" data-name="Group 1405">
        <path id="Path_4824" data-name="Path 4824" d="M38.694,233.086H34.256a6.623,6.623,0,0,0-1.745.234,6.646,6.646,0,0,0-5.922-3.641H18.745a6.646,6.646,0,0,0-5.922,3.641,6.623,6.623,0,0,0-1.745-.234H6.641A6.648,6.648,0,0,0,0,239.727v7.094a3.989,3.989,0,0,0,3.985,3.985H41.35a3.989,3.989,0,0,0,3.985-3.985v-7.094A6.648,6.648,0,0,0,38.694,233.086ZM12.1,236.321V248.15H3.985a1.33,1.33,0,0,1-1.328-1.328v-7.094a3.989,3.989,0,0,1,3.985-3.985h4.438a3.973,3.973,0,0,1,1.042.139C12.111,236.027,12.1,236.174,12.1,236.321Zm18.47,11.829H14.761V236.321a3.989,3.989,0,0,1,3.985-3.985H26.59a3.989,3.989,0,0,1,3.985,3.985Zm12.1-1.328a1.33,1.33,0,0,1-1.328,1.328H33.23V236.321c0-.148-.007-.294-.016-.439a3.976,3.976,0,0,1,1.042-.139h4.438a3.989,3.989,0,0,1,3.985,3.985Z" transform="translate(0 -229.68)" fill="#707070"/>
      </g>
    </g>
    <g id="Group_1408" data-name="Group 1408" transform="translate(2.959 51.058)">
      <g id="Group_1407" data-name="Group 1407">
        <path id="Path_4825" data-name="Path 4825" d="M39.315,126.5a5.9,5.9,0,1,0,5.9,5.9A5.908,5.908,0,0,0,39.315,126.5Zm0,9.146a3.245,3.245,0,1,1,3.245-3.245A3.248,3.248,0,0,1,39.315,135.65Z" transform="translate(-33.414 -126.504)" fill="#707070"/>
      </g>
    </g>
    <g id="Group_1410" data-name="Group 1410" transform="translate(14.784 43.729)">
      <g id="Group_1409" data-name="Group 1409" transform="translate(0 0)">
        <path id="Path_4826" data-name="Path 4826" d="M174.846,43.729a7.884,7.884,0,1,0,7.884,7.884A7.893,7.893,0,0,0,174.846,43.729Zm0,13.111a5.228,5.228,0,1,1,5.227-5.228A5.233,5.233,0,0,1,174.846,56.84Z" transform="translate(-166.962 -43.729)" fill="#707070"/>
      </g>
    </g>
    <g id="Group_1412" data-name="Group 1412" transform="translate(30.574 51.058)">
      <g id="Group_1411" data-name="Group 1411">
        <path id="Path_4827" data-name="Path 4827" d="M351.2,126.5a5.9,5.9,0,1,0,5.9,5.9A5.908,5.908,0,0,0,351.2,126.5Zm0,9.146a3.245,3.245,0,1,1,3.245-3.245A3.249,3.249,0,0,1,351.2,135.65Z" transform="translate(-345.294 -126.504)" fill="#707070"/>
      </g>
    </g>
  </g>
</svg>
