<svg xmlns="http://www.w3.org/2000/svg" width="51.222" height="43.003" viewBox="0 0 51.222 43.003">
  <g id="money_5_" data-name="money (5)" transform="translate(0 -34.019)">
    <g id="Group_1160" data-name="Group 1160" transform="translate(35.562 34.019)">
      <g id="Group_1159" data-name="Group 1159">
        <path id="Path_4608" data-name="Path 4608" d="M301.406,34.019a7.03,7.03,0,0,0,0,14.061,7.063,7.063,0,0,0,7.054-7.054A6.991,6.991,0,0,0,301.406,34.019Zm0,12.514a5.484,5.484,0,1,1,5.508-5.46A5.506,5.506,0,0,1,301.406,46.533Z" transform="translate(-294.4 -34.019)" fill="#707070"/>
      </g>
    </g>
    <g id="Group_1162" data-name="Group 1162" transform="translate(40.297 36.483)">
      <g id="Group_1161" data-name="Group 1161">
        <path id="Path_4609" data-name="Path 4609" d="M338.094,60.072a1.263,1.263,0,0,0-.145-.387,1.211,1.211,0,0,0-.193-.338c-.1-.1-.145-.193-.242-.29a.867.867,0,0,0-.338-.242,1.211,1.211,0,0,0-.338-.193c-.145-.048-.242-.145-.387-.193a3.322,3.322,0,0,1-.387-.145.366.366,0,0,1-.193-.1c-.048-.048-.145-.048-.193-.1s-.145-.048-.193-.1l-.145-.145a.251.251,0,0,1-.1-.193.291.291,0,0,1-.048-.193v-.242c0-.048.048-.145.048-.193.048-.048.048-.145.1-.193l.145-.145a.369.369,0,0,1,.242-.1.436.436,0,0,1,.242-.048h.29a.436.436,0,0,1,.242.048,2.092,2.092,0,0,1,.242.048c.048,0,.145.048.193.048.1,0,.145.048.193.048l.242.1.048-.29.1-.773v-.193l-.193-.048c-.048,0-.145-.048-.193-.048s-.1-.048-.193-.048a2.09,2.09,0,0,0-.242-.048c-.1,0-.145-.048-.242-.048H336.4v-.918h-1.16v.966h-.048a1.716,1.716,0,0,0-.435.193.866.866,0,0,0-.338.242,2.1,2.1,0,0,0-.29.338.971.971,0,0,0-.193.387l-.145.435a1.644,1.644,0,0,0-.048.483,1.064,1.064,0,0,0,.048.387,1.264,1.264,0,0,0,.145.387c.048.1.145.242.193.338.1.1.145.193.242.29a.867.867,0,0,0,.338.242,1.211,1.211,0,0,0,.338.193,2.864,2.864,0,0,1,.387.193,3.325,3.325,0,0,1,.387.145.366.366,0,0,1,.193.1c.048.048.145.048.193.1s.1.1.145.1l.145.145c.048.048.048.1.1.193a2.092,2.092,0,0,1,.048.242v.242a.366.366,0,0,1-.1.193l-.145.145a.668.668,0,0,1-.193.145c-.048.048-.145.048-.193.1a2.093,2.093,0,0,1-.242.048h-.628a2.092,2.092,0,0,1-.242-.048.687.687,0,0,1-.29-.1c-.1-.048-.193-.048-.29-.1-.048,0-.1-.048-.145-.048s-.1-.048-.145-.048l-.29-.145-.048.338-.1.87v.145l.145.048a.646.646,0,0,1,.435.048.9.9,0,0,0,.338.1c.1.048.242.048.387.1a1.064,1.064,0,0,0,.387.048h.1v.966h1.16V62.536h.048a1.716,1.716,0,0,0,.435-.193,1.7,1.7,0,0,0,.387-.242,2.1,2.1,0,0,0,.29-.338,2.7,2.7,0,0,0,.242-.387l.145-.435a1.489,1.489,0,0,0,.048-.483A1.063,1.063,0,0,0,338.094,60.072Z" transform="translate(-333.6 -54.419)" fill="#707070"/>
      </g>
    </g>
    <g id="Group_1164" data-name="Group 1164" transform="translate(8.273 48.702)">
      <g id="Group_1163" data-name="Group 1163" transform="translate(0 0)">
        <path id="Path_4610" data-name="Path 4610" d="M99.4,155.865a.823.823,0,0,0-1.111-.145l-7.827,6.233-10.1-4.2a.771.771,0,0,0-.725.1l-10.823,7.731a.772.772,0,0,0-.193,1.063.7.7,0,0,0,.628.338.779.779,0,0,0,.435-.145l10.485-7.489,10.147,4.2a.869.869,0,0,0,.773-.1l8.166-6.475A.823.823,0,0,0,99.4,155.865Z" transform="translate(-68.489 -155.569)" fill="#707070"/>
      </g>
    </g>
    <g id="Group_1166" data-name="Group 1166" transform="translate(0 52.332)">
      <g id="Group_1165" data-name="Group 1165" transform="translate(0 0)">
        <path id="Path_4611" data-name="Path 4611" d="M50.492,208.763H46.917V186.392a.763.763,0,0,0-.773-.773h-7.1a.763.763,0,0,0-.773.773v22.371H35.659v-14.64a.763.763,0,0,0-.773-.773H27.734a.763.763,0,0,0-.773.773v14.64H24.352v-15.8a.763.763,0,0,0-.773-.773h-7.1a.763.763,0,0,0-.773.773v15.8H13.094V197.505a.763.763,0,0,0-.773-.773H5.17a.763.763,0,0,0-.773.773v11.258H.773a.773.773,0,1,0,0,1.546H50.444a.763.763,0,0,0,.773-.773A.7.7,0,0,0,50.492,208.763Zm-38.993,0H5.943V198.278H11.5Zm11.306,0H17.25V193.736h5.557Zm11.258,0H28.508V194.9h5.557Zm11.306,0H39.814v-21.6h5.557Z" transform="translate(0 -185.619)" fill="#707070"/>
      </g>
    </g>
  </g>
</svg>
