<svg xmlns="http://www.w3.org/2000/svg" width="32.55" height="36.229" viewBox="0 0 32.55 36.229">
  <g id="office-building" transform="translate(-26)">
    <path id="Path_4290" data-name="Path 4290" d="M57.842,8.492H44.4V.708A.708.708,0,0,0,43.69,0H26.708A.708.708,0,0,0,26,.708V35.522a.708.708,0,0,0,.708.708H57.842a.708.708,0,0,0,.708-.708V9.2A.708.708,0,0,0,57.842,8.492ZM44.4,9.907H57.134V27.738H44.4ZM33.076,34.814V29.153h4.246v5.661Zm4.953-7.076H32.368a.708.708,0,0,0-.708.708v6.368H27.415V1.415H42.982v33.4H38.737V28.446A.708.708,0,0,0,38.029,27.738ZM44.4,34.814V29.153H57.134v5.661Z" transform="translate(0)" fill="#707070"/>
    <path id="Path_4291" data-name="Path 4291" d="M136.707,42.831h1.415a.708.708,0,0,0,.708-.708V40.709a.708.708,0,0,0-.708-.708h-1.415a.708.708,0,0,0-.708.708v1.415A.708.708,0,0,0,136.707,42.831Z" transform="translate(-102.215 -37.171)" fill="#707070"/>
    <path id="Path_4292" data-name="Path 4292" d="M136.707,112.831h1.415a.708.708,0,0,0,.708-.708v-1.415a.708.708,0,0,0-.708-.708h-1.415a.708.708,0,0,0-.708.708v1.415A.708.708,0,0,0,136.707,112.831Z" transform="translate(-102.215 -102.217)" fill="#707070"/>
    <path id="Path_4293" data-name="Path 4293" d="M136.707,182.831h1.415a.708.708,0,0,0,.708-.708v-1.415a.708.708,0,0,0-.708-.708h-1.415a.708.708,0,0,0-.708.708v1.415A.708.708,0,0,0,136.707,182.831Z" transform="translate(-102.215 -167.264)" fill="#707070"/>
    <path id="Path_4294" data-name="Path 4294" d="M136.707,252.83h1.415a.708.708,0,0,0,.708-.708v-1.415a.708.708,0,0,0-.708-.708h-1.415a.708.708,0,0,0-.708.708v1.415A.708.708,0,0,0,136.707,252.83Z" transform="translate(-102.215 -232.31)" fill="#707070"/>
    <path id="Path_4295" data-name="Path 4295" d="M136.707,322.83h1.415a.708.708,0,0,0,.708-.708v-1.415a.708.708,0,0,0-.708-.708h-1.415a.708.708,0,0,0-.708.708v1.415A.708.708,0,0,0,136.707,322.83Z" transform="translate(-102.215 -297.357)" fill="#707070"/>
    <path id="Path_4296" data-name="Path 4296" d="M66.709,42.831h1.415a.708.708,0,0,0,.708-.708V40.709A.708.708,0,0,0,68.124,40H66.709a.708.708,0,0,0-.708.708v1.415A.708.708,0,0,0,66.709,42.831Z" transform="translate(-37.171 -37.171)" fill="#707070"/>
    <path id="Path_4297" data-name="Path 4297" d="M66.709,112.831h1.415a.708.708,0,0,0,.708-.708v-1.415a.708.708,0,0,0-.708-.708H66.709a.708.708,0,0,0-.708.708v1.415A.708.708,0,0,0,66.709,112.831Z" transform="translate(-37.171 -102.217)" fill="#707070"/>
    <path id="Path_4298" data-name="Path 4298" d="M66.709,182.831h1.415a.708.708,0,0,0,.708-.708v-1.415a.708.708,0,0,0-.708-.708H66.709a.708.708,0,0,0-.708.708v1.415A.708.708,0,0,0,66.709,182.831Z" transform="translate(-37.171 -167.264)" fill="#707070"/>
    <path id="Path_4299" data-name="Path 4299" d="M66.709,252.83h1.415a.708.708,0,0,0,.708-.708v-1.415a.708.708,0,0,0-.708-.708H66.709a.708.708,0,0,0-.708.708v1.415A.708.708,0,0,0,66.709,252.83Z" transform="translate(-37.171 -232.31)" fill="#707070"/>
    <path id="Path_4300" data-name="Path 4300" d="M66.709,322.83h1.415a.708.708,0,0,0,.708-.708v-1.415a.708.708,0,0,0-.708-.708H66.709a.708.708,0,0,0-.708.708v1.415A.708.708,0,0,0,66.709,322.83Z" transform="translate(-37.171 -297.357)" fill="#707070"/>
    <path id="Path_4301" data-name="Path 4301" d="M208.124,40h-1.415a.708.708,0,0,0-.708.708v1.415a.708.708,0,0,0,.708.708h1.415a.708.708,0,0,0,.708-.708V40.709A.708.708,0,0,0,208.124,40Z" transform="translate(-167.264 -37.171)" fill="#707070"/>
    <path id="Path_4302" data-name="Path 4302" d="M208.124,110h-1.415a.708.708,0,0,0-.708.708v1.415a.708.708,0,0,0,.708.708h1.415a.708.708,0,0,0,.708-.708v-1.415A.708.708,0,0,0,208.124,110Z" transform="translate(-167.264 -102.216)" fill="#707070"/>
    <path id="Path_4303" data-name="Path 4303" d="M208.124,180h-1.415a.708.708,0,0,0-.708.708v1.415a.708.708,0,0,0,.708.708h1.415a.708.708,0,0,0,.708-.708v-1.415A.708.708,0,0,0,208.124,180Z" transform="translate(-167.264 -167.263)" fill="#707070"/>
    <path id="Path_4304" data-name="Path 4304" d="M208.124,250h-1.415a.708.708,0,0,0-.708.708v1.415a.708.708,0,0,0,.708.708h1.415a.708.708,0,0,0,.708-.708v-1.415A.708.708,0,0,0,208.124,250Z" transform="translate(-167.264 -232.31)" fill="#707070"/>
    <path id="Path_4305" data-name="Path 4305" d="M208.124,320h-1.415a.708.708,0,0,0-.708.708v1.415a.708.708,0,0,0,.708.708h1.415a.708.708,0,0,0,.708-.708v-1.415A.708.708,0,0,0,208.124,320Z" transform="translate(-167.264 -297.357)" fill="#707070"/>
    <path id="Path_4306" data-name="Path 4306" d="M393.123,180h-1.415a.708.708,0,0,0-.708.708v1.415a.708.708,0,0,0,.708.708h1.415a.708.708,0,0,0,.708-.708v-1.415A.708.708,0,0,0,393.123,180Z" transform="translate(-339.173 -167.263)" fill="#707070"/>
    <path id="Path_4307" data-name="Path 4307" d="M393.123,250h-1.415a.708.708,0,0,0-.708.708v1.415a.708.708,0,0,0,.708.708h1.415a.708.708,0,0,0,.708-.708v-1.415A.708.708,0,0,0,393.123,250Z" transform="translate(-339.173 -232.31)" fill="#707070"/>
    <path id="Path_4308" data-name="Path 4308" d="M393.123,320h-1.415a.707.707,0,0,0-.708.708v1.415a.708.708,0,0,0,.708.708h1.415a.708.708,0,0,0,.708-.708v-1.415A.708.708,0,0,0,393.123,320Z" transform="translate(-339.173 -297.357)" fill="#707070"/>
    <path id="Path_4309" data-name="Path 4309" d="M323.125,180H321.71a.708.708,0,0,0-.708.708v1.415a.708.708,0,0,0,.708.708h1.415a.708.708,0,0,0,.708-.708v-1.415A.708.708,0,0,0,323.125,180Z" transform="translate(-274.128 -167.263)" fill="#707070"/>
    <path id="Path_4310" data-name="Path 4310" d="M323.125,250H321.71a.708.708,0,0,0-.708.708v1.415a.708.708,0,0,0,.708.708h1.415a.708.708,0,0,0,.708-.708v-1.415A.708.708,0,0,0,323.125,250Z" transform="translate(-274.128 -232.31)" fill="#707070"/>
    <path id="Path_4311" data-name="Path 4311" d="M323.125,320H321.71a.708.708,0,0,0-.708.708v1.415a.708.708,0,0,0,.708.708h1.415a.708.708,0,0,0,.708-.708v-1.415A.708.708,0,0,0,323.125,320Z" transform="translate(-274.128 -297.357)" fill="#707070"/>
  </g>
</svg>
