<svg id="product" xmlns="http://www.w3.org/2000/svg" width="40.515" height="37.757" viewBox="0 0 40.515 37.757">
  <path id="Path_4537" data-name="Path 4537" d="M47.048,41.9H45.005a2.012,2.012,0,0,0-1.921-1.476H40.9V35.094a.563.563,0,0,0-.274-.5L25.245,25.711a.568.568,0,0,0-.571,0L9.285,34.6a.573.573,0,0,0-.285.5V52.865a.574.574,0,0,0,.287.5l15.39,8.886a.574.574,0,0,0,.287.077.6.6,0,0,0,.3-.077l8.1-4.671v3.377a2.431,2.431,0,0,0,2.452,2.437H47.048a2.445,2.445,0,0,0,2.467-2.437V44.378A2.477,2.477,0,0,0,47.048,41.9Zm-3.943-.328a.833.833,0,0,1,.833.833v.056a.833.833,0,0,1-.833.833H39.769a.833.833,0,0,1-.833-.833v-.056a.833.833,0,0,1,.833-.833Zm-18.14-14.7,6.4,3.692L17.118,38.785l-6.395-3.692Zm-.546,33.885L10.148,52.534V36.087L24.419,44.31Zm.546-17.441-6.7-3.867,14.241-8.222,6.7,3.867Zm8.394,1.063V56.251l-7.791,4.506V44.31l14.189-8.223v4.34h.018A2.012,2.012,0,0,0,37.853,41.9H35.81A2.463,2.463,0,0,0,33.358,44.378ZM48.367,60.954a1.3,1.3,0,0,1-1.319,1.289H35.81a1.282,1.282,0,0,1-1.3-1.289V44.378a1.314,1.314,0,0,1,1.3-1.327h2.065a1.964,1.964,0,0,0,1.9,1.394h3.311a1.964,1.964,0,0,0,1.9-1.394h2.065a1.328,1.328,0,0,1,1.319,1.327Z" transform="translate(-9 -25.634)" fill="#fff"/>
  <path id="Path_4538" data-name="Path 4538" d="M337.57,281.855h.6a.574.574,0,1,0,0-1.148h-.023v-1.558h1.583a.553.553,0,0,0,.546.388.576.576,0,0,0,.577-.573v-.386a.582.582,0,0,0-.58-.577h-2.7a.573.573,0,0,0-.57.577v2.7a.57.57,0,0,0,.57.573Z" transform="translate(-310.099 -257.302)" fill="#fff"/>
  <path id="Path_4539" data-name="Path 4539" d="M337.574,345.855h2.706a.574.574,0,0,0,.574-.574v-2.707a.574.574,0,0,0-.574-.574h-2.706a.574.574,0,0,0-.574.574v2.707A.574.574,0,0,0,337.574,345.855Zm.574-2.707h1.558v1.558h-1.558Z" transform="translate(-310.099 -316.053)" fill="#fff"/>
  <path id="Path_4540" data-name="Path 4540" d="M338.171,408.707h-.023v-1.558H339.7a.577.577,0,1,0,1.154,0V406.6a.6.6,0,0,0-.58-.6h-2.7a.59.59,0,0,0-.57.6v2.7a.554.554,0,0,0,.57.554h.6a.574.574,0,1,0,0-1.148Z" transform="translate(-310.099 -374.804)" fill="#fff"/>
  <path id="Path_4541" data-name="Path 4541" d="M357.528,284.707l-1.681,1.681-.511-.512a.574.574,0,0,0-.812.812l.917.917a.574.574,0,0,0,.812,0l2.087-2.087a.574.574,0,1,0-.812-.812Z" transform="translate(-326.03 -263.305)" fill="#fff"/>
  <path id="Path_4542" data-name="Path 4542" d="M357.528,413.956l-1.681,1.681-.511-.512a.574.574,0,0,0-.812.812l.917.917a.574.574,0,0,0,.812,0l2.087-2.087a.574.574,0,0,0-.812-.812Z" transform="translate(-326.03 -381.953)" fill="#fff"/>
  <path id="Path_4543" data-name="Path 4543" d="M418.071,295h-3.606a.574.574,0,1,0,0,1.148h3.606a.574.574,0,0,0,0-1.148Z" transform="translate(-380.684 -272.908)" fill="#fff"/>
  <path id="Path_4544" data-name="Path 4544" d="M418.071,359h-3.606a.574.574,0,1,0,0,1.148h3.606a.574.574,0,1,0,0-1.148Z" transform="translate(-380.684 -331.659)" fill="#fff"/>
  <path id="Path_4545" data-name="Path 4545" d="M418.071,423h-3.606a.574.574,0,1,0,0,1.148h3.606a.574.574,0,1,0,0-1.148Z" transform="translate(-380.684 -390.41)" fill="#fff"/>
</svg>
