<svg xmlns="http://www.w3.org/2000/svg" width="34.218" height="42.574" viewBox="0 0 34.218 42.574">
  <g id="profile" transform="translate(-0.398)">
    <path id="Path_4907" data-name="Path 4907" d="M29.308,275.725a16.7,16.7,0,0,0-2.7-.225c-8.951,0-16.208,7.132-16.208,16.857h5.4C15.8,283.64,21.645,277,29.308,275.725Zm0,0" transform="translate(-9.099 -250.692)" fill="#d4e1f4"/>
    <path id="Path_4908" data-name="Path 4908" d="M86,20.62a9.73,9.73,0,0,1,9.725-9.725c.171,0,.351.009.522.018A9.723,9.723,0,1,0,91.6,29.427,9.713,9.713,0,0,1,86,20.62Zm0,0" transform="translate(-74.616 -9.094)" fill="#d4e1f4"/>
    <path id="Path_4909" data-name="Path 4909" d="M83.024,0A10.626,10.626,0,1,0,93.649,10.626,10.626,10.626,0,0,0,83.024,0Zm0,19.45a8.825,8.825,0,1,1,8.825-8.825A8.825,8.825,0,0,1,83.024,19.45Zm0,0" transform="translate(-65.516)" fill="#2a669a"/>
    <path id="Path_4910" data-name="Path 4910" d="M17.507,265.5a16.771,16.771,0,0,0-12.1,5.052A18,18,0,0,0,.4,283.266a.9.9,0,0,0,.9.9H33.716a.9.9,0,0,0,.9-.9A17.977,17.977,0,0,0,29.61,270.56a16.781,16.781,0,0,0-12.1-5.061ZM2.218,282.365a16.083,16.083,0,0,1,4.466-10.545A15,15,0,0,1,17.5,267.31a15,15,0,0,1,10.814,4.511,16.038,16.038,0,0,1,4.466,10.545Zm0,0" transform="translate(0 -241.592)" fill="#09bc8a"/>
  </g>
</svg>
