<svg id="service" xmlns="http://www.w3.org/2000/svg" width="39.682" height="39.682" viewBox="0 0 39.682 39.682">
  <path id="Path_4548" data-name="Path 4548" d="M53.269,35.841H40.71A5.926,5.926,0,0,0,39.6,34.448a3.565,3.565,0,0,0,2.857-3.489v-2.14A3.555,3.555,0,0,0,41.07,26a10.549,10.549,0,0,0-3.822-7.209,12.907,12.907,0,0,0-16.042,0A10.547,10.547,0,0,0,17.385,26,3.555,3.555,0,0,0,16,28.819v2.14a3.563,3.563,0,0,0,1.984,3.191v.368a8.1,8.1,0,0,0,.628,2.815,8.21,8.21,0,0,0,.587,1.156,3.31,3.31,0,0,0-3.2,3.3V55.021a.661.661,0,0,0,.661.661H49.73a.661.661,0,0,0,0-1.323H47.172l.165-1.323h5.932a2.416,2.416,0,0,0,2.413-2.413V38.254A2.416,2.416,0,0,0,53.269,35.841ZM33.2,49.73H39.8l-.248,1.984h-5.27a1.091,1.091,0,0,1-1.09-1.09Zm-1.323-9.921v1.02l-2.645,3.779-3.359-4.8Zm.011-1.778A7.942,7.942,0,0,1,21.291,30.55V29.227c0-.61,1.212-1.323,4.63-1.323a6.44,6.44,0,0,0,5.307-2.574,7.752,7.752,0,0,0,.715-1.126,20.179,20.179,0,0,0,2.769,4.168,5.188,5.188,0,0,0,2.452,1.422v.756a7.894,7.894,0,0,1-2.023,5.291h-.854A2.416,2.416,0,0,0,31.884,38.031Zm5.28-9.61a4.036,4.036,0,0,1-1.516-.984,25.6,25.6,0,0,1-3.178-5.109.661.661,0,0,0-1.239.128,6.305,6.305,0,0,1-1.053,2.071,5.1,5.1,0,0,1-4.257,2.055,11.234,11.234,0,0,0-4.609.755,7.936,7.936,0,0,1,15.852.568Zm.363,6.239A4.108,4.108,0,0,1,39.1,35.841H36.827a9.2,9.2,0,0,0,.7-1.181Zm3.6-3.7A2.239,2.239,0,0,1,38.9,33.2H38.1a9.283,9.283,0,0,0,.383-2.645V27.9a9.288,9.288,0,0,0-.095-1.32l.5,0a2.239,2.239,0,0,1,2.237,2.237ZM22.052,19.813a11.586,11.586,0,0,1,14.352,0,9.208,9.208,0,0,1,3.237,5.526,3.558,3.558,0,0,0-.745-.079H38.1a9.259,9.259,0,0,0-17.747,0h-.794a3.556,3.556,0,0,0-.744.079,9.209,9.209,0,0,1,3.236-5.526ZM17.323,30.959v-2.14a2.239,2.239,0,0,1,2.237-2.237h.5a9.3,9.3,0,0,0-.095,1.323V30.55a9.229,9.229,0,0,0,.386,2.645h-.795A2.239,2.239,0,0,1,17.323,30.959Zm2.237,3.559h1.3a9.323,9.323,0,0,0,3.6,3.968H20.8a6.945,6.945,0,0,1-1.494-3.97v-.008C19.39,34.514,19.474,34.518,19.559,34.518Zm-2.237,7.275a1.986,1.986,0,0,1,1.984-1.984h.9a8.331,8.331,0,0,0,2.806,1.931.661.661,0,1,0,.521-1.216,7.544,7.544,0,0,1-1.305-.715h2.023l4.432,6.332a.661.661,0,0,0,1.084,0l2.1-3.005v7.488a2.416,2.416,0,0,0,2.413,2.413h5.1l-.165,1.323H31.807a3.312,3.312,0,0,0-3.241-2.645H27.243A3.312,3.312,0,0,0,24,54.36h-6.68ZM27.243,54.36h-1.87a1.987,1.987,0,0,1,1.87-1.323Zm1.323-1.323a1.987,1.987,0,0,1,1.87,1.323h-1.87Zm11.4-4.63H33.2V38.254a1.091,1.091,0,0,1,1.09-1.09H53.269a1.091,1.091,0,0,1,1.09,1.09V48.407H47.916l.486-3.886a.661.661,0,0,0-.656-.743H41.132a.661.661,0,0,0-.656.579ZM41.716,45.1H47L45.839,54.36H40.559Zm11.553,6.614H47.5l.248-1.984H54.36v.894A1.091,1.091,0,0,1,53.269,51.714Z" transform="translate(-16 -16)" fill="#2a669a"/>
</svg>
